<svg xmlns="http://www.w3.org/2000/svg" width="64" height="64" viewBox="0 0 64 64" role="img" aria-label="MINJOON ST. door">
  <rect width="64" height="64" rx="16" fill="#0c1017"/>
  <rect x="4" y="4" width="56" height="56" rx="12" fill="none" stroke="#f5d37b" stroke-opacity=".34" stroke-width="2"/>
  <g transform="translate(8 8) scale(2)" fill="none" stroke="#f5d37b" stroke-linecap="round" stroke-linejoin="round" stroke-width="1.65">
    <path d="M13 4h3a2 2 0 0 1 2 2v14"/>
    <path d="M2 20h3"/>
    <path d="M13 20h9"/>
    <path d="M10 12v.01"/>
    <path d="M13 4.562v16.157a1 1 0 0 1-1.242.97L5 20V5.562a2 2 0 0 1 1.515-1.94l4-1A2 2 0 0 1 13 4.561Z"/>
  </g>
  <circle cx="28" cy="32" r="2.2" fill="#8fe0bc"/>
</svg>
